%TF.GenerationSoftware,KiCad,Pcbnew,10.0.5*%
%TF.CreationDate,2026-08-21T21:49:08-04:00*%
%TF.ProjectId,wavplayer-1_1,77617670-6c61-4796-9572-2d315f312e6b,rev?*%
%TF.SameCoordinates,Original*%
%TF.FileFunction,Copper,L1,Top*%
%TF.FilePolarity,Positive*%
%FSLAX46Y46*%
G04 Gerber Fmt 4.6, Leading zero omitted, Abs format (unit mm)*
G04 Created by KiCad (PCBNEW 10.0.5) date 2026-08-21 21:49:08*
%MOMM*%
%LPD*%
G01*
G04 APERTURE LIST*
G04 Aperture macros list*
%AMRoundRect*
0 Rectangle with rounded corners*
0 $1 Rounding radius*
0 $2 $3 $4 $5 $6 $7 $8 $9 X,Y pos of 4 corners*
0 Add a 4 corners polygon primitive as box body*
4,1,4,$2,$3,$4,$5,$6,$7,$8,$9,$2,$3,0*
0 Add four circle primitives for the rounded corners*
1,1,$1+$1,$2,$3*
1,1,$1+$1,$4,$5*
1,1,$1+$1,$6,$7*
1,1,$1+$1,$8,$9*
0 Add four rect primitives between the rounded corners*
20,1,$1+$1,$2,$3,$4,$5,0*
20,1,$1+$1,$4,$5,$6,$7,0*
20,1,$1+$1,$6,$7,$8,$9,0*
20,1,$1+$1,$8,$9,$2,$3,0*%
G04 Aperture macros list end*
%TA.AperFunction,ComponentPad*%
%ADD10C,1.700000*%
%TD*%
%TA.AperFunction,SMDPad,CuDef*%
%ADD11RoundRect,0.200000X0.200000X0.275000X-0.200000X0.275000X-0.200000X-0.275000X0.200000X-0.275000X0*%
%TD*%
%TA.AperFunction,ComponentPad*%
%ADD12R,1.700000X1.700000*%
%TD*%
%TA.AperFunction,SMDPad,CuDef*%
%ADD13RoundRect,0.200000X-0.275000X0.200000X-0.275000X-0.200000X0.275000X-0.200000X0.275000X0.200000X0*%
%TD*%
%TA.AperFunction,ViaPad*%
%ADD14C,0.600000*%
%TD*%
%TA.AperFunction,Conductor*%
%ADD15C,0.200000*%
%TD*%
G04 APERTURE END LIST*
D10*
%TO.P,SW3,1,1_1*%
%TO.N,Net-(R4-Pad1)*%
X133460000Y-79500000D03*
X139960000Y-79500000D03*
%TO.P,SW3,2,2_2*%
%TO.N,+3V3*%
X133460000Y-84000000D03*
%TO.N,unconnected-(SW3-Pad2)*%
X139960000Y-84000000D03*
%TD*%
D11*
%TO.P,R4,1*%
%TO.N,Net-(R4-Pad1)*%
X128250000Y-79750000D03*
%TO.P,R4,2*%
%TO.N,/GP0_ADC1_0*%
X126600000Y-79750000D03*
%TD*%
D12*
%TO.P,ESP2,1,Pin_1_1*%
%TO.N,/GP0_ADC1_0*%
X140530000Y-102750000D03*
D10*
%TO.P,ESP2,2,Pin_2_2*%
%TO.N,/GP1_ADC1_1*%
X137990000Y-102750000D03*
%TO.P,ESP2,3,Pin_3_3*%
%TO.N,/GP2_ADC1_2*%
X135450000Y-102750000D03*
%TO.P,ESP2,4,Pin_4_4*%
%TO.N,/GP3_ADC1_3*%
X132910000Y-102750000D03*
%TO.P,ESP2,5,Pin_5_5*%
%TO.N,/SCK*%
X130370000Y-102750000D03*
%TO.P,ESP2,6,Pin_6_6*%
%TO.N,+3V3*%
X127830000Y-102750000D03*
%TO.P,ESP2,7,Pin_7_7*%
%TO.N,GND*%
X125290000Y-102750000D03*
%TO.P,ESP2,8,Pin_8_8*%
%TO.N,unconnected-(ESP2-Pin_8-Pad8)*%
X122750000Y-102750000D03*
%TD*%
%TO.P,SW2,1,1_1*%
%TO.N,Net-(R3-Pad1)*%
X125500000Y-87000000D03*
X132000000Y-87000000D03*
%TO.P,SW2,2,2_2*%
%TO.N,+3V3*%
X125500000Y-91500000D03*
%TO.N,unconnected-(SW2-Pad2)*%
X132000000Y-91500000D03*
%TD*%
D12*
%TO.P,SCR1,1,Pin_1_1*%
%TO.N,/SDA*%
X140790000Y-54000000D03*
D10*
%TO.P,SCR1,2,Pin_2_2*%
%TO.N,/SCL*%
X138250000Y-54000000D03*
%TO.P,SCR1,3,Pin_3_3*%
%TO.N,+3V3*%
X135710000Y-54000000D03*
%TO.P,SCR1,4,Pin_4_4*%
%TO.N,GND*%
X133170000Y-54000000D03*
%TD*%
D11*
%TO.P,R2,1*%
%TO.N,Net-(R2-Pad1)*%
X124000000Y-83000000D03*
%TO.P,R2,2*%
%TO.N,/GP0_ADC1_0*%
X122350000Y-83000000D03*
%TD*%
D10*
%TO.P,SW4,1,1_1*%
%TO.N,Net-(R2-Pad1)*%
X140500000Y-87000000D03*
X147000000Y-87000000D03*
%TO.P,SW4,2,2_2*%
%TO.N,+3V3*%
X140500000Y-91500000D03*
%TO.N,unconnected-(SW4-Pad2)*%
X147000000Y-91500000D03*
%TD*%
D12*
%TO.P,SD1,1,Pin_1_1*%
%TO.N,GND*%
X144250000Y-106750000D03*
D10*
%TO.P,SD1,2,Pin_2_2*%
%TO.N,/MISO*%
X141710000Y-106750000D03*
%TO.P,SD1,3,Pin_3_3*%
%TO.N,/SCK*%
X139170000Y-106750000D03*
%TO.P,SD1,4,Pin_4_4*%
%TO.N,/MOSI*%
X136630000Y-106750000D03*
%TO.P,SD1,5,Pin_5_5*%
%TO.N,/CS*%
X134090000Y-106750000D03*
%TO.P,SD1,6,Pin_6_6*%
%TO.N,+3V3*%
X131550000Y-106750000D03*
%TD*%
D12*
%TO.P,PCM1,1,Pin_1_1*%
%TO.N,+3V3*%
X122500000Y-53750000D03*
D10*
%TO.P,PCM1,2,Pin_2_2*%
%TO.N,GND*%
X122500000Y-56290000D03*
%TO.P,PCM1,3,Pin_3_3*%
%TO.N,/GP3_ADC1_3*%
X122500000Y-58830000D03*
%TO.P,PCM1,4,Pin_4_4*%
%TO.N,/GP2_ADC1_2*%
X122500000Y-61370000D03*
%TO.P,PCM1,5,Pin_5_5*%
%TO.N,/GP1_ADC1_1*%
X122500000Y-63910000D03*
%TO.P,PCM1,6,Pin_6_6*%
%TO.N,unconnected-(PCM1-Pin_6-Pad6)*%
X122500000Y-66450000D03*
%TD*%
D12*
%TO.P,ESP1,1,Pin_1_1*%
%TO.N,/MISO*%
X140530000Y-117750000D03*
D10*
%TO.P,ESP1,2,Pin_2_2*%
%TO.N,/MOSI*%
X137990000Y-117750000D03*
%TO.P,ESP1,3,Pin_3_3*%
%TO.N,/CS*%
X135450000Y-117750000D03*
%TO.P,ESP1,4,Pin_4_4*%
%TO.N,/SDA*%
X132910000Y-117750000D03*
%TO.P,ESP1,5,Pin_5_5*%
%TO.N,/SCL*%
X130370000Y-117750000D03*
%TO.P,ESP1,6,Pin_6_6*%
%TO.N,unconnected-(ESP1-Pin_6-Pad6)*%
X127830000Y-117750000D03*
%TO.P,ESP1,7,Pin_7_7*%
%TO.N,unconnected-(ESP1-Pin_7-Pad7)*%
X125290000Y-117750000D03*
%TO.P,ESP1,8,Pin_8_8*%
%TO.N,unconnected-(ESP1-Pin_8-Pad8)*%
X122750000Y-117750000D03*
%TD*%
D11*
%TO.P,R1,1*%
%TO.N,Net-(R1-Pad1)*%
X128250000Y-83000000D03*
%TO.P,R1,2*%
%TO.N,/GP0_ADC1_0*%
X126600000Y-83000000D03*
%TD*%
D13*
%TO.P,R5,1*%
%TO.N,GND*%
X130500000Y-80600000D03*
%TO.P,R5,2*%
%TO.N,/GP0_ADC1_0*%
X130500000Y-82250000D03*
%TD*%
D11*
%TO.P,R3,1*%
%TO.N,Net-(R3-Pad1)*%
X124000000Y-79750000D03*
%TO.P,R3,2*%
%TO.N,/GP0_ADC1_0*%
X122350000Y-79750000D03*
%TD*%
D10*
%TO.P,SW1,1,1_1*%
%TO.N,Net-(R1-Pad1)*%
X133500000Y-94500000D03*
X140000000Y-94500000D03*
%TO.P,SW1,2,2_2*%
%TO.N,+3V3*%
X133500000Y-99000000D03*
%TO.N,unconnected-(SW1-Pad2)*%
X140000000Y-99000000D03*
%TD*%
D14*
%TO.N,Net-(R4-Pad1)*%
X129250000Y-79575000D03*
%TD*%
%TO.N,Net-(R4-Pad1)*%
D15*
X129250000Y-79575000D02*
X128425000Y-79575000D01*
X128425000Y-79575000D02*
X128250000Y-79750000D01*
%TO.N,/GP0_ADC1_0*%
X130500000Y-82250000D02*
X131275000Y-81475000D01*
X131275000Y-81475000D02*
X131275000Y-80187352D01*
X131275000Y-80187352D02*
X130987648Y-79900000D01*
X130987648Y-79900000D02*
X130012352Y-79900000D01*
X130012352Y-79900000D02*
X127550000Y-82362352D01*
X127550000Y-82362352D02*
X127550000Y-90234314D01*
X127550000Y-90234314D02*
X140065686Y-102750000D01*
X140065686Y-102750000D02*
X140530000Y-102750000D01*
%TO.N,Net-(R2-Pad1)*%
X123250000Y-77500000D02*
X141750000Y-77500000D01*
X124000000Y-83000000D02*
X123250000Y-82250000D01*
X123250000Y-82250000D02*
X123250000Y-77500000D01*
X141750000Y-85750000D02*
X140500000Y-87000000D01*
X141750000Y-77500000D02*
X141750000Y-85750000D01*
%TO.N,Net-(R3-Pad1)*%
X137250000Y-79000000D02*
X137250000Y-89000000D01*
X124000000Y-79750000D02*
X125400000Y-78350000D01*
X125400000Y-78350000D02*
X136600000Y-78350000D01*
X136600000Y-78350000D02*
X137250000Y-79000000D01*
X137250000Y-89000000D02*
X134000000Y-89000000D01*
X134000000Y-89000000D02*
X132000000Y-87000000D01*
%TO.N,Net-(R1-Pad1)*%
X128250000Y-83000000D02*
X128250000Y-89376346D01*
X128250000Y-89376346D02*
X133373654Y-94500000D01*
X133373654Y-94500000D02*
X133500000Y-94500000D01*
%TO.N,/GP0_ADC1_0*%
X122350000Y-83000000D02*
X122350000Y-79750000D01*
X126600000Y-83000000D02*
X125825000Y-83775000D01*
X125825000Y-83775000D02*
X123125000Y-83775000D01*
X123125000Y-83775000D02*
X122350000Y-83000000D01*
X126600000Y-83000000D02*
X126600000Y-79750000D01*
X131275000Y-81475000D02*
X131275000Y-79775000D01*
X131275000Y-79775000D02*
X130475000Y-78975000D01*
X130475000Y-78975000D02*
X127375000Y-78975000D01*
X127375000Y-78975000D02*
X126600000Y-79750000D01*
%TO.N,/GP1_ADC1_1*%
X122500000Y-63910000D02*
X124250000Y-65660000D01*
X121400000Y-69176346D02*
X121400000Y-95188628D01*
X121400000Y-95188628D02*
X127061372Y-100850000D01*
X124250000Y-65660000D02*
X124250000Y-66326346D01*
X127061372Y-100850000D02*
X136090000Y-100850000D01*
X136090000Y-100850000D02*
X137990000Y-102750000D01*
X124250000Y-66326346D02*
X121400000Y-69176346D01*
%TO.N,/GP3_ADC1_3*%
X127000000Y-101250000D02*
X132750000Y-101250000D01*
X126947843Y-101302157D02*
X127000000Y-101250000D01*
X121000000Y-60110000D02*
X121000000Y-95354314D01*
X122280000Y-58830000D02*
X121000000Y-60110000D01*
X122500000Y-58830000D02*
X122280000Y-58830000D01*
X121000000Y-95354314D02*
X126947843Y-101302157D01*
X132750000Y-101250000D02*
X132910000Y-101410000D01*
X132910000Y-101410000D02*
X132910000Y-102750000D01*
%TO.N,+3V3*%
X120600000Y-95520000D02*
X120600000Y-52350000D01*
X127830000Y-102750000D02*
X120600000Y-95520000D01*
X120600000Y-52350000D02*
X121100000Y-52350000D01*
X121100000Y-52350000D02*
X122500000Y-53750000D01*
%TO.N,/GP2_ADC1_2*%
X122500000Y-61370000D02*
X151120000Y-61370000D01*
X143100000Y-107900000D02*
X143100000Y-106350000D01*
X151120000Y-61370000D02*
X151850000Y-62100000D01*
X136885686Y-103900000D02*
X135735686Y-102750000D01*
X151850000Y-62100000D02*
X151850000Y-101450000D01*
X151850000Y-101450000D02*
X145400000Y-107900000D01*
X145400000Y-107900000D02*
X143100000Y-107900000D01*
X143100000Y-106350000D02*
X140650000Y-103900000D01*
X135735686Y-102750000D02*
X135450000Y-102750000D01*
X140650000Y-103900000D02*
X136885686Y-103900000D01*
%TO.N,/MISO*%
X141710000Y-106750000D02*
X140530000Y-107930000D01*
X140530000Y-107930000D02*
X140530000Y-117750000D01*
%TO.N,/MOSI*%
X136630000Y-106750000D02*
X137990000Y-108110000D01*
X137990000Y-108110000D02*
X137990000Y-117750000D01*
%TO.N,/CS*%
X134090000Y-106750000D02*
X135450000Y-108110000D01*
X135450000Y-108110000D02*
X135450000Y-117750000D01*
%TO.N,/SDA*%
X140790000Y-54000000D02*
X141000000Y-54000000D01*
X141000000Y-54000000D02*
X143000000Y-52000000D01*
X152250000Y-52000000D02*
X152250000Y-120500000D01*
X143000000Y-52000000D02*
X152250000Y-52000000D01*
X152250000Y-120500000D02*
X135660000Y-120500000D01*
X135660000Y-120500000D02*
X132910000Y-117750000D01*
%TO.N,/SCL*%
X138250000Y-54000000D02*
X140750000Y-51500000D01*
X140750000Y-51500000D02*
X153399999Y-51500000D01*
X133770000Y-121150000D02*
X130370000Y-117750000D01*
X153399999Y-51500000D02*
X153399999Y-120850001D01*
X153399999Y-120850001D02*
X153100000Y-121150000D01*
X153100000Y-121150000D02*
X133770000Y-121150000D01*
%TO.N,/SCK*%
X130370000Y-102750000D02*
X131520000Y-103900000D01*
X131520000Y-103900000D02*
X136320000Y-103900000D01*
X136320000Y-103900000D02*
X139170000Y-106750000D01*
%TO.N,GND*%
X130500000Y-80600000D02*
X129220000Y-81880000D01*
X129220000Y-81880000D02*
X129220000Y-86593654D01*
X129220000Y-86593654D02*
X144250000Y-101623654D01*
X144250000Y-101623654D02*
X144250000Y-106750000D01*
%TO.N,+3V3*%
X127830000Y-102750000D02*
X131550000Y-106470000D01*
X131550000Y-106470000D02*
X131550000Y-106750000D01*
X135710000Y-54000000D02*
X134560000Y-52850000D01*
X134560000Y-52850000D02*
X123400000Y-52850000D01*
X123400000Y-52850000D02*
X122500000Y-53750000D01*
%TD*%
M02*
