M48
; DRILL file KiCad 10.0.5 date 2026-08-21T21:49:04
; FORMAT={-:-/ absolute / metric / decimal}
; #@! TF.CreationDate,2026-08-21T21:49:04-04:00
; #@! TF.GenerationSoftware,Kicad,Pcbnew,10.0.5
; #@! TF.FileFunction,Plated,1,2,PTH
FMAT,2
METRIC
; #@! TA.AperFunction,Plated,PTH,ViaDrill
T1C0.300
; #@! TA.AperFunction,Plated,PTH,ComponentDrill
T2C1.000
%
G90
G05
T1
X129.25Y-79.575
T2
X122.5Y-53.75
X122.5Y-56.29
X122.5Y-58.83
X122.5Y-61.37
X122.5Y-63.91
X122.5Y-66.45
X122.75Y-102.75
X122.75Y-117.75
X125.29Y-102.75
X125.29Y-117.75
X125.5Y-87.0
X125.5Y-91.5
X127.83Y-102.75
X127.83Y-117.75
X130.37Y-102.75
X130.37Y-117.75
X131.55Y-106.75
X132.0Y-87.0
X132.0Y-91.5
X132.91Y-102.75
X132.91Y-117.75
X133.17Y-54.0
X133.46Y-79.5
X133.46Y-84.0
X133.5Y-94.5
X133.5Y-99.0
X134.09Y-106.75
X135.45Y-102.75
X135.45Y-117.75
X135.71Y-54.0
X136.63Y-106.75
X137.99Y-102.75
X137.99Y-117.75
X138.25Y-54.0
X139.17Y-106.75
X139.96Y-79.5
X139.96Y-84.0
X140.0Y-94.5
X140.0Y-99.0
X140.5Y-87.0
X140.5Y-91.5
X140.53Y-102.75
X140.53Y-117.75
X140.79Y-54.0
X141.71Y-106.75
X144.25Y-106.75
X147.0Y-87.0
X147.0Y-91.5
M30
