M48
; DRILL file KiCad 10.0.5 date 2026-09-02T18:05:49
; FORMAT={-:-/ absolute / metric / decimal}
; #@! TF.CreationDate,2026-09-02T18:05:49-04:00
; #@! TF.GenerationSoftware,Kicad,Pcbnew,10.0.5
; #@! TF.FileFunction,Plated,1,2,PTH
FMAT,2
METRIC
; #@! TA.AperFunction,Plated,PTH,ComponentDrill
T1C1.000
%
G90
G05
T1
X125.5Y-86.0
X125.5Y-90.5
X125.96Y-101.25
X125.96Y-116.25
X128.5Y-101.25
X128.5Y-116.25
X131.04Y-101.25
X131.04Y-116.25
X132.0Y-86.0
X132.0Y-90.5
X133.17Y-54.0
X133.46Y-78.5
X133.46Y-83.0
X133.5Y-93.5
X133.5Y-98.0
X133.58Y-101.25
X133.58Y-116.25
X135.55Y-105.5
X135.71Y-54.0
X136.09Y-60.0
X136.12Y-101.25
X136.12Y-116.25
X138.09Y-105.5
X138.25Y-54.0
X138.63Y-60.0
X138.66Y-101.25
X138.66Y-116.25
X139.96Y-78.5
X139.96Y-83.0
X140.0Y-93.5
X140.0Y-98.0
X140.5Y-86.0
X140.5Y-90.5
X140.63Y-105.5
X140.79Y-54.0
X141.17Y-60.0
X141.2Y-101.25
X141.2Y-116.25
X143.17Y-105.5
X143.71Y-60.0
X143.74Y-101.25
X143.74Y-116.25
X145.71Y-105.5
X146.25Y-60.0
X147.0Y-86.0
X147.0Y-90.5
X148.25Y-105.5
X148.79Y-60.0
M30
