%TF.GenerationSoftware,KiCad,Pcbnew,10.0.5*%
%TF.CreationDate,2026-08-22T11:47:10-04:00*%
%TF.ProjectId,wavplayer-1_2,77617670-6c61-4796-9572-2d315f322e6b,rev?*%
%TF.SameCoordinates,Original*%
%TF.FileFunction,Copper,L2,Bot*%
%TF.FilePolarity,Positive*%
%FSLAX46Y46*%
G04 Gerber Fmt 4.6, Leading zero omitted, Abs format (unit mm)*
G04 Created by KiCad (PCBNEW 10.0.5) date 2026-08-22 11:47:10*
%MOMM*%
%LPD*%
G01*
G04 APERTURE LIST*
%TA.AperFunction,ComponentPad*%
%ADD10C,1.700000*%
%TD*%
%TA.AperFunction,ComponentPad*%
%ADD11R,1.700000X1.700000*%
%TD*%
%TA.AperFunction,Conductor*%
%ADD12C,0.200000*%
%TD*%
G04 APERTURE END LIST*
D10*
%TO.P,PCM1,6,Pin_6_6*%
%TO.N,unconnected-(PCM1-Pin_6-Pad6)*%
X136090000Y-60000000D03*
%TO.P,PCM1,5,Pin_5_5*%
%TO.N,/GP1_ADC1_1*%
X138630000Y-60000000D03*
%TO.P,PCM1,4,Pin_4_4*%
%TO.N,/GP2_ADC1_2*%
X141170000Y-60000000D03*
%TO.P,PCM1,3,Pin_3_3*%
%TO.N,/GP3_ADC1_3*%
X143710000Y-60000000D03*
%TO.P,PCM1,2,Pin_2_2*%
%TO.N,GND*%
X146250000Y-60000000D03*
D11*
%TO.P,PCM1,1,Pin_1_1*%
%TO.N,+3V3*%
X148790000Y-60000000D03*
%TD*%
D10*
%TO.P,SD1,6,Pin_6_6*%
%TO.N,+3V3*%
X135550000Y-105500000D03*
%TO.P,SD1,5,Pin_5_5*%
%TO.N,/CS*%
X138090000Y-105500000D03*
%TO.P,SD1,4,Pin_4_4*%
%TO.N,/MOSI*%
X140630000Y-105500000D03*
%TO.P,SD1,3,Pin_3_3*%
%TO.N,/SCK*%
X143170000Y-105500000D03*
%TO.P,SD1,2,Pin_2_2*%
%TO.N,/MISO*%
X145710000Y-105500000D03*
D11*
%TO.P,SD1,1,Pin_1_1*%
%TO.N,GND*%
X148250000Y-105500000D03*
%TD*%
D10*
%TO.P,SW3,1,1_1*%
%TO.N,Net-(R4-Pad1)*%
X133460000Y-78500000D03*
X139960000Y-78500000D03*
%TO.P,SW3,2,2_2*%
%TO.N,+3V3*%
X133460000Y-83000000D03*
%TO.N,unconnected-(SW3-Pad2)*%
X139960000Y-83000000D03*
%TD*%
D11*
%TO.P,ESP2,1,Pin_1_1*%
%TO.N,/GP0_ADC1_0*%
X143740000Y-101250000D03*
D10*
%TO.P,ESP2,2,Pin_2_2*%
%TO.N,/GP1_ADC1_1*%
X141200000Y-101250000D03*
%TO.P,ESP2,3,Pin_3_3*%
%TO.N,/GP2_ADC1_2*%
X138660000Y-101250000D03*
%TO.P,ESP2,4,Pin_4_4*%
%TO.N,/GP3_ADC1_3*%
X136120000Y-101250000D03*
%TO.P,ESP2,5,Pin_5_5*%
%TO.N,/SCK*%
X133580000Y-101250000D03*
%TO.P,ESP2,6,Pin_6_6*%
%TO.N,+3V3*%
X131040000Y-101250000D03*
%TO.P,ESP2,7,Pin_7_7*%
%TO.N,GND*%
X128500000Y-101250000D03*
%TO.P,ESP2,8,Pin_8_8*%
%TO.N,unconnected-(ESP2-Pin_8-Pad8)*%
X125960000Y-101250000D03*
%TD*%
%TO.P,SW2,1,1_1*%
%TO.N,Net-(R3-Pad1)*%
X125500000Y-86000000D03*
X132000000Y-86000000D03*
%TO.P,SW2,2,2_2*%
%TO.N,+3V3*%
X125500000Y-90500000D03*
%TO.N,unconnected-(SW2-Pad2)*%
X132000000Y-90500000D03*
%TD*%
D11*
%TO.P,SCR1,1,Pin_1_1*%
%TO.N,/SDA*%
X140790000Y-54000000D03*
D10*
%TO.P,SCR1,2,Pin_2_2*%
%TO.N,/SCL*%
X138250000Y-54000000D03*
%TO.P,SCR1,3,Pin_3_3*%
%TO.N,+3V3*%
X135710000Y-54000000D03*
%TO.P,SCR1,4,Pin_4_4*%
%TO.N,GND*%
X133170000Y-54000000D03*
%TD*%
%TO.P,SW4,1,1_1*%
%TO.N,Net-(R2-Pad1)*%
X140500000Y-86000000D03*
X147000000Y-86000000D03*
%TO.P,SW4,2,2_2*%
%TO.N,+3V3*%
X140500000Y-90500000D03*
%TO.N,unconnected-(SW4-Pad2)*%
X147000000Y-90500000D03*
%TD*%
D11*
%TO.P,ESP1,1,Pin_1_1*%
%TO.N,/MISO*%
X143740000Y-116250000D03*
D10*
%TO.P,ESP1,2,Pin_2_2*%
%TO.N,/MOSI*%
X141200000Y-116250000D03*
%TO.P,ESP1,3,Pin_3_3*%
%TO.N,/CS*%
X138660000Y-116250000D03*
%TO.P,ESP1,4,Pin_4_4*%
%TO.N,/SDA*%
X136120000Y-116250000D03*
%TO.P,ESP1,5,Pin_5_5*%
%TO.N,/SCL*%
X133580000Y-116250000D03*
%TO.P,ESP1,6,Pin_6_6*%
%TO.N,unconnected-(ESP1-Pin_6-Pad6)*%
X131040000Y-116250000D03*
%TO.P,ESP1,7,Pin_7_7*%
%TO.N,unconnected-(ESP1-Pin_7-Pad7)*%
X128500000Y-116250000D03*
%TO.P,ESP1,8,Pin_8_8*%
%TO.N,unconnected-(ESP1-Pin_8-Pad8)*%
X125960000Y-116250000D03*
%TD*%
%TO.P,SW1,1,1_1*%
%TO.N,Net-(R1-Pad1)*%
X133500000Y-93500000D03*
X140000000Y-93500000D03*
%TO.P,SW1,2,2_2*%
%TO.N,+3V3*%
X133500000Y-98000000D03*
%TO.N,unconnected-(SW1-Pad2)*%
X140000000Y-98000000D03*
%TD*%
%TO.N,+3V3*%
D12*
X133460000Y-83000000D02*
X133460000Y-91913654D01*
X133460000Y-91913654D02*
X131040000Y-94333654D01*
X131040000Y-94333654D02*
X131040000Y-101250000D01*
X133460000Y-83000000D02*
X133460000Y-91040000D01*
X133460000Y-91040000D02*
X132350000Y-92150000D01*
X132350000Y-92150000D02*
X132350000Y-96850000D01*
X132350000Y-96850000D02*
X133500000Y-98000000D01*
X133460000Y-83000000D02*
X140500000Y-90040000D01*
X140500000Y-90040000D02*
X140500000Y-90500000D01*
%TO.N,GND*%
X148250000Y-105500000D02*
X147100000Y-104350000D01*
X147100000Y-104350000D02*
X145233654Y-104350000D01*
X139556346Y-102800000D02*
X130050000Y-102800000D01*
X145233654Y-104350000D02*
X144320000Y-105263654D01*
X144320000Y-105263654D02*
X144320000Y-105976346D01*
X144320000Y-105976346D02*
X143646346Y-106650000D01*
X143646346Y-106650000D02*
X142093654Y-106650000D01*
X130050000Y-102800000D02*
X128500000Y-101250000D01*
X142093654Y-106650000D02*
X141780000Y-106336346D01*
X141780000Y-106336346D02*
X141780000Y-105023654D01*
X141780000Y-105023654D02*
X139556346Y-102800000D01*
X146250000Y-60000000D02*
X128500000Y-77750000D01*
X128500000Y-77750000D02*
X128500000Y-101250000D01*
X133170000Y-54000000D02*
X134320000Y-52850000D01*
X134320000Y-52850000D02*
X138966346Y-52850000D01*
X138966346Y-52850000D02*
X139640000Y-53523654D01*
X139640000Y-55150000D02*
X141400000Y-55150000D01*
X139640000Y-53523654D02*
X139640000Y-55150000D01*
X141400000Y-55150000D02*
X146250000Y-60000000D01*
%TO.N,/SCL*%
X138250000Y-54000000D02*
X127350000Y-64900000D01*
X127350000Y-64900000D02*
X127350000Y-110020000D01*
X127350000Y-110020000D02*
X133580000Y-116250000D01*
%TO.N,/SDA*%
X150750000Y-112315686D02*
X150750000Y-54000000D01*
X145265686Y-117800000D02*
X150750000Y-112315686D01*
X137670000Y-117800000D02*
X145265686Y-117800000D01*
X136120000Y-116250000D02*
X137670000Y-117800000D01*
X150750000Y-54000000D02*
X140790000Y-54000000D01*
%TO.N,/SCK*%
X143170000Y-105500000D02*
X140070000Y-102400000D01*
X140070000Y-102400000D02*
X134730000Y-102400000D01*
X134730000Y-102400000D02*
X133580000Y-101250000D01*
%TO.N,/CS*%
X138660000Y-116250000D02*
X138660000Y-106070000D01*
X138660000Y-106070000D02*
X138090000Y-105500000D01*
%TO.N,/MOSI*%
X141200000Y-116250000D02*
X141200000Y-106070000D01*
X141200000Y-106070000D02*
X140630000Y-105500000D01*
%TO.N,/MISO*%
X143740000Y-116250000D02*
X143740000Y-107470000D01*
X143740000Y-107470000D02*
X145710000Y-105500000D01*
%TD*%
M02*
