%TF.GenerationSoftware,KiCad,Pcbnew,10.0.5*%
%TF.CreationDate,2026-08-22T11:47:10-04:00*%
%TF.ProjectId,wavplayer-1_2,77617670-6c61-4796-9572-2d315f322e6b,rev?*%
%TF.SameCoordinates,Original*%
%TF.FileFunction,Soldermask,Bot*%
%TF.FilePolarity,Negative*%
%FSLAX46Y46*%
G04 Gerber Fmt 4.6, Leading zero omitted, Abs format (unit mm)*
G04 Created by KiCad (PCBNEW 10.0.5) date 2026-08-22 11:47:10*
%MOMM*%
%LPD*%
G01*
G04 APERTURE LIST*
%ADD10C,1.700000*%
%ADD11R,1.700000X1.700000*%
G04 APERTURE END LIST*
D10*
%TO.C,PCM1*%
X136090000Y-60000000D03*
X138630000Y-60000000D03*
X141170000Y-60000000D03*
X143710000Y-60000000D03*
X146250000Y-60000000D03*
D11*
X148790000Y-60000000D03*
%TD*%
D10*
%TO.C,SD1*%
X135550000Y-105500000D03*
X138090000Y-105500000D03*
X140630000Y-105500000D03*
X143170000Y-105500000D03*
X145710000Y-105500000D03*
D11*
X148250000Y-105500000D03*
%TD*%
D10*
%TO.C,SW3*%
X133460000Y-78500000D03*
X139960000Y-78500000D03*
X133460000Y-83000000D03*
X139960000Y-83000000D03*
%TD*%
D11*
%TO.C,ESP2*%
X143740000Y-101250000D03*
D10*
X141200000Y-101250000D03*
X138660000Y-101250000D03*
X136120000Y-101250000D03*
X133580000Y-101250000D03*
X131040000Y-101250000D03*
X128500000Y-101250000D03*
X125960000Y-101250000D03*
%TD*%
%TO.C,SW2*%
X125500000Y-86000000D03*
X132000000Y-86000000D03*
X125500000Y-90500000D03*
X132000000Y-90500000D03*
%TD*%
D11*
%TO.C,SCR1*%
X140790000Y-54000000D03*
D10*
X138250000Y-54000000D03*
X135710000Y-54000000D03*
X133170000Y-54000000D03*
%TD*%
%TO.C,SW4*%
X140500000Y-86000000D03*
X147000000Y-86000000D03*
X140500000Y-90500000D03*
X147000000Y-90500000D03*
%TD*%
D11*
%TO.C,ESP1*%
X143740000Y-116250000D03*
D10*
X141200000Y-116250000D03*
X138660000Y-116250000D03*
X136120000Y-116250000D03*
X133580000Y-116250000D03*
X131040000Y-116250000D03*
X128500000Y-116250000D03*
X125960000Y-116250000D03*
%TD*%
%TO.C,SW1*%
X133500000Y-93500000D03*
X140000000Y-93500000D03*
X133500000Y-98000000D03*
X140000000Y-98000000D03*
%TD*%
M02*
