%TF.GenerationSoftware,KiCad,Pcbnew,10.0.5*%
%TF.CreationDate,2026-09-02T18:05:52-04:00*%
%TF.ProjectId,wavplayer-1_2,77617670-6c61-4796-9572-2d315f322e6b,rev?*%
%TF.SameCoordinates,Original*%
%TF.FileFunction,Copper,L1,Top*%
%TF.FilePolarity,Positive*%
%FSLAX46Y46*%
G04 Gerber Fmt 4.6, Leading zero omitted, Abs format (unit mm)*
G04 Created by KiCad (PCBNEW 10.0.5) date 2026-09-02 18:05:52*
%MOMM*%
%LPD*%
G01*
G04 APERTURE LIST*
G04 Aperture macros list*
%AMRoundRect*
0 Rectangle with rounded corners*
0 $1 Rounding radius*
0 $2 $3 $4 $5 $6 $7 $8 $9 X,Y pos of 4 corners*
0 Add a 4 corners polygon primitive as box body*
4,1,4,$2,$3,$4,$5,$6,$7,$8,$9,$2,$3,0*
0 Add four circle primitives for the rounded corners*
1,1,$1+$1,$2,$3*
1,1,$1+$1,$4,$5*
1,1,$1+$1,$6,$7*
1,1,$1+$1,$8,$9*
0 Add four rect primitives between the rounded corners*
20,1,$1+$1,$2,$3,$4,$5,0*
20,1,$1+$1,$4,$5,$6,$7,0*
20,1,$1+$1,$6,$7,$8,$9,0*
20,1,$1+$1,$8,$9,$2,$3,0*%
G04 Aperture macros list end*
%TA.AperFunction,ComponentPad*%
%ADD10C,1.700000*%
%TD*%
%TA.AperFunction,SMDPad,CuDef*%
%ADD11RoundRect,0.200000X0.200000X0.275000X-0.200000X0.275000X-0.200000X-0.275000X0.200000X-0.275000X0*%
%TD*%
%TA.AperFunction,ComponentPad*%
%ADD12R,1.700000X1.700000*%
%TD*%
%TA.AperFunction,Conductor*%
%ADD13C,0.200000*%
%TD*%
G04 APERTURE END LIST*
D10*
%TO.P,SW3,1,1_1*%
%TO.N,Net-(R4-Pad1)*%
X133460000Y-78500000D03*
X139960000Y-78500000D03*
%TO.P,SW3,2,2_2*%
%TO.N,+3V3*%
X133460000Y-83000000D03*
%TO.N,unconnected-(SW3-Pad2)*%
X139960000Y-83000000D03*
%TD*%
D11*
%TO.P,R4,1*%
%TO.N,Net-(R4-Pad1)*%
X146500000Y-78000000D03*
%TO.P,R4,2*%
%TO.N,/GP0_ADC1_0*%
X144850000Y-78000000D03*
%TD*%
D12*
%TO.P,ESP2,1,Pin_1_1*%
%TO.N,/GP0_ADC1_0*%
X143740000Y-101250000D03*
D10*
%TO.P,ESP2,2,Pin_2_2*%
%TO.N,/GP1_ADC1_1*%
X141200000Y-101250000D03*
%TO.P,ESP2,3,Pin_3_3*%
%TO.N,/GP2_ADC1_2*%
X138660000Y-101250000D03*
%TO.P,ESP2,4,Pin_4_4*%
%TO.N,/GP3_ADC1_3*%
X136120000Y-101250000D03*
%TO.P,ESP2,5,Pin_5_5*%
%TO.N,/SCK*%
X133580000Y-101250000D03*
%TO.P,ESP2,6,Pin_6_6*%
%TO.N,+3V3*%
X131040000Y-101250000D03*
%TO.P,ESP2,7,Pin_7_7*%
%TO.N,GND*%
X128500000Y-101250000D03*
%TO.P,ESP2,8,Pin_8_8*%
%TO.N,unconnected-(ESP2-Pin_8-Pad8)*%
X125960000Y-101250000D03*
%TD*%
%TO.P,SW2,1,1_1*%
%TO.N,Net-(R3-Pad1)*%
X125500000Y-86000000D03*
X132000000Y-86000000D03*
%TO.P,SW2,2,2_2*%
%TO.N,+3V3*%
X125500000Y-90500000D03*
%TO.N,unconnected-(SW2-Pad2)*%
X132000000Y-90500000D03*
%TD*%
D12*
%TO.P,SCR1,1,Pin_1_1*%
%TO.N,/SDA*%
X140790000Y-54000000D03*
D10*
%TO.P,SCR1,2,Pin_2_2*%
%TO.N,/SCL*%
X138250000Y-54000000D03*
%TO.P,SCR1,3,Pin_3_3*%
%TO.N,+3V3*%
X135710000Y-54000000D03*
%TO.P,SCR1,4,Pin_4_4*%
%TO.N,GND*%
X133170000Y-54000000D03*
%TD*%
D11*
%TO.P,R2,1*%
%TO.N,Net-(R2-Pad1)*%
X128325000Y-82500000D03*
%TO.P,R2,2*%
%TO.N,/GP0_ADC1_0*%
X126675000Y-82500000D03*
%TD*%
D10*
%TO.P,SW4,1,1_1*%
%TO.N,Net-(R2-Pad1)*%
X140500000Y-86000000D03*
X147000000Y-86000000D03*
%TO.P,SW4,2,2_2*%
%TO.N,+3V3*%
X140500000Y-90500000D03*
%TO.N,unconnected-(SW4-Pad2)*%
X147000000Y-90500000D03*
%TD*%
D12*
%TO.P,SD1,1,Pin_1_1*%
%TO.N,GND*%
X148250000Y-105500000D03*
D10*
%TO.P,SD1,2,Pin_2_2*%
%TO.N,/MISO*%
X145710000Y-105500000D03*
%TO.P,SD1,3,Pin_3_3*%
%TO.N,/SCK*%
X143170000Y-105500000D03*
%TO.P,SD1,4,Pin_4_4*%
%TO.N,/MOSI*%
X140630000Y-105500000D03*
%TO.P,SD1,5,Pin_5_5*%
%TO.N,/CS*%
X138090000Y-105500000D03*
%TO.P,SD1,6,Pin_6_6*%
%TO.N,+3V3*%
X135550000Y-105500000D03*
%TD*%
D12*
%TO.P,PCM1,1,Pin_1_1*%
%TO.N,+3V3*%
X148790000Y-60000000D03*
D10*
%TO.P,PCM1,2,Pin_2_2*%
%TO.N,GND*%
X146250000Y-60000000D03*
%TO.P,PCM1,3,Pin_3_3*%
%TO.N,/GP3_ADC1_3*%
X143710000Y-60000000D03*
%TO.P,PCM1,4,Pin_4_4*%
%TO.N,/GP2_ADC1_2*%
X141170000Y-60000000D03*
%TO.P,PCM1,5,Pin_5_5*%
%TO.N,/GP1_ADC1_1*%
X138630000Y-60000000D03*
%TO.P,PCM1,6,Pin_6_6*%
%TO.N,unconnected-(PCM1-Pin_6-Pad6)*%
X136090000Y-60000000D03*
%TD*%
D11*
%TO.P,R1,1*%
%TO.N,Net-(R1-Pad1)*%
X143750000Y-81000000D03*
%TO.P,R1,2*%
%TO.N,/GP0_ADC1_0*%
X142100000Y-81000000D03*
%TD*%
%TO.P,R5,1*%
%TO.N,GND*%
X149250000Y-81000000D03*
%TO.P,R5,2*%
%TO.N,/GP0_ADC1_0*%
X147600000Y-81000000D03*
%TD*%
%TO.P,R3,1*%
%TO.N,Net-(R3-Pad1)*%
X128325000Y-78250000D03*
%TO.P,R3,2*%
%TO.N,/GP0_ADC1_0*%
X126675000Y-78250000D03*
%TD*%
D10*
%TO.P,SW1,1,1_1*%
%TO.N,Net-(R1-Pad1)*%
X133500000Y-93500000D03*
X140000000Y-93500000D03*
%TO.P,SW1,2,2_2*%
%TO.N,+3V3*%
X133500000Y-98000000D03*
%TO.N,unconnected-(SW1-Pad2)*%
X140000000Y-98000000D03*
%TD*%
%TO.P,ESP1,8,Pin_8_8*%
%TO.N,unconnected-(ESP1-Pin_8-Pad8)*%
X143740000Y-116250000D03*
%TO.P,ESP1,7,Pin_7_7*%
%TO.N,unconnected-(ESP1-Pin_7-Pad7)*%
X141200000Y-116250000D03*
%TO.P,ESP1,6,Pin_6_6*%
%TO.N,unconnected-(ESP1-Pin_6-Pad6)*%
X138660000Y-116250000D03*
%TO.P,ESP1,5,Pin_5_5*%
%TO.N,/SDA*%
X136120000Y-116250000D03*
%TO.P,ESP1,4,Pin_4_4*%
%TO.N,/SCL*%
X133580000Y-116250000D03*
%TO.P,ESP1,3,Pin_3_3*%
%TO.N,/CS*%
X131040000Y-116250000D03*
%TO.P,ESP1,2,Pin_2_2*%
%TO.N,/MOSI*%
X128500000Y-116250000D03*
D12*
%TO.P,ESP1,1,Pin_1_1*%
%TO.N,/MISO*%
X125960000Y-116250000D03*
%TD*%
%TO.N,/CS*%
D13*
X131040000Y-116250000D02*
X129890000Y-117400000D01*
X129890000Y-117400000D02*
X128023654Y-117400000D01*
X128023654Y-117400000D02*
X127350000Y-116726346D01*
X127350000Y-116726346D02*
X127350000Y-115773654D01*
X137623654Y-105500000D02*
X138090000Y-105500000D01*
X127350000Y-115773654D02*
X137623654Y-105500000D01*
%TO.N,/MOSI*%
X140630000Y-105500000D02*
X139480000Y-106650000D01*
X139480000Y-106650000D02*
X138100000Y-106650000D01*
X138100000Y-106650000D02*
X128500000Y-116250000D01*
%TO.N,Net-(R4-Pad1)*%
X146500000Y-78000000D02*
X145725000Y-77225000D01*
X145725000Y-77225000D02*
X141235000Y-77225000D01*
X141235000Y-77225000D02*
X139960000Y-78500000D01*
%TO.N,+3V3*%
X147250000Y-52750000D02*
X148790000Y-54290000D01*
X131300000Y-101250000D02*
X131040000Y-101250000D01*
X135550000Y-105500000D02*
X131300000Y-101250000D01*
X130000000Y-95000000D02*
X130000000Y-100210000D01*
X125500000Y-90500000D02*
X130000000Y-95000000D01*
X135710000Y-54000000D02*
X136960000Y-52750000D01*
X148790000Y-54290000D02*
X148790000Y-60000000D01*
X130000000Y-100210000D02*
X131040000Y-101250000D01*
X136960000Y-52750000D02*
X147250000Y-52750000D01*
%TO.N,/GP0_ADC1_0*%
X144850000Y-78000000D02*
X144850000Y-78250000D01*
X126675000Y-82500000D02*
X126675000Y-78250000D01*
X133503654Y-102800000D02*
X141276346Y-102800000D01*
X143740000Y-101250000D02*
X143740000Y-82640000D01*
X141276346Y-102800000D02*
X142350000Y-101726346D01*
X126675000Y-87348654D02*
X132350000Y-93023654D01*
X142350000Y-81250000D02*
X142100000Y-81000000D01*
X132350000Y-93023654D02*
X132350000Y-101646346D01*
X142350000Y-101726346D02*
X142350000Y-81250000D01*
X132350000Y-101646346D02*
X133503654Y-102800000D01*
X144850000Y-78250000D02*
X142100000Y-81000000D01*
X144850000Y-78250000D02*
X147600000Y-81000000D01*
X143740000Y-82640000D02*
X142100000Y-81000000D01*
X126675000Y-82500000D02*
X126675000Y-87348654D01*
%TO.N,/GP1_ADC1_1*%
X138630000Y-60000000D02*
X134970000Y-63660000D01*
X134970000Y-101726346D02*
X135643654Y-102400000D01*
X135643654Y-102400000D02*
X140050000Y-102400000D01*
X134970000Y-63660000D02*
X134970000Y-101726346D01*
X140050000Y-102400000D02*
X141200000Y-101250000D01*
%TO.N,/GP2_ADC1_2*%
X144860000Y-60476346D02*
X138660000Y-66676346D01*
X142320000Y-58850000D02*
X144186346Y-58850000D01*
X141170000Y-60000000D02*
X142320000Y-58850000D01*
X144186346Y-58850000D02*
X144860000Y-59523654D01*
X144860000Y-59523654D02*
X144860000Y-60476346D01*
X138660000Y-66676346D02*
X138660000Y-101250000D01*
%TO.N,/GP3_ADC1_3*%
X136120000Y-67590000D02*
X136120000Y-101250000D01*
X143710000Y-60000000D02*
X136120000Y-67590000D01*
%TO.N,GND*%
X149250000Y-81000000D02*
X150500000Y-81000000D01*
X150500000Y-103250000D02*
X148250000Y-105500000D01*
X150500000Y-81000000D02*
X150500000Y-103250000D01*
%TO.N,Net-(R3-Pad1)*%
X126262352Y-77475000D02*
X125500000Y-78237352D01*
X125500000Y-78237352D02*
X125500000Y-86000000D01*
X128325000Y-78250000D02*
X127550000Y-77475000D01*
X127550000Y-77475000D02*
X126262352Y-77475000D01*
%TO.N,Net-(R2-Pad1)*%
X148150000Y-87150000D02*
X147000000Y-86000000D01*
X147415686Y-52350000D02*
X150900000Y-55834314D01*
X129850000Y-80975000D02*
X129850000Y-59186346D01*
X128325000Y-82500000D02*
X129850000Y-80975000D01*
X129850000Y-59186346D02*
X134560000Y-54476346D01*
X134560000Y-53523654D02*
X135733654Y-52350000D01*
X149400000Y-106650000D02*
X147100000Y-106650000D01*
X148150000Y-103300000D02*
X148150000Y-87150000D01*
X134560000Y-54476346D02*
X134560000Y-53523654D01*
X135733654Y-52350000D02*
X147415686Y-52350000D01*
X150900000Y-55834314D02*
X150900000Y-105150000D01*
X147100000Y-106650000D02*
X147100000Y-104350000D01*
X147100000Y-104350000D02*
X148150000Y-103300000D01*
X150900000Y-105150000D02*
X149400000Y-106650000D01*
%TO.N,Net-(R1-Pad1)*%
X137480000Y-60584314D02*
X130850000Y-67214314D01*
X137480000Y-59523654D02*
X137480000Y-60584314D01*
X147400000Y-77712352D02*
X147400000Y-59523654D01*
X148012648Y-81775000D02*
X148300000Y-81487648D01*
X143750000Y-81000000D02*
X144525000Y-81775000D01*
X144525000Y-81775000D02*
X148012648Y-81775000D01*
X146326346Y-58450000D02*
X138553654Y-58450000D01*
X138553654Y-58450000D02*
X137480000Y-59523654D01*
X133500000Y-89700000D02*
X133500000Y-93500000D01*
X130850000Y-87050000D02*
X133500000Y-89700000D01*
X147400000Y-59523654D02*
X146326346Y-58450000D01*
X130850000Y-67214314D02*
X130850000Y-87050000D01*
X148300000Y-78612352D02*
X147400000Y-77712352D01*
X148300000Y-81487648D02*
X148300000Y-78612352D01*
%TD*%
M02*
