%TF.GenerationSoftware,KiCad,Pcbnew,10.0.5*%
%TF.CreationDate,2026-08-21T21:49:08-04:00*%
%TF.ProjectId,wavplayer-1_1,77617670-6c61-4796-9572-2d315f312e6b,rev?*%
%TF.SameCoordinates,Original*%
%TF.FileFunction,Copper,L2,Bot*%
%TF.FilePolarity,Positive*%
%FSLAX46Y46*%
G04 Gerber Fmt 4.6, Leading zero omitted, Abs format (unit mm)*
G04 Created by KiCad (PCBNEW 10.0.5) date 2026-08-21 21:49:08*
%MOMM*%
%LPD*%
G01*
G04 APERTURE LIST*
%TA.AperFunction,ComponentPad*%
%ADD10C,1.700000*%
%TD*%
%TA.AperFunction,ComponentPad*%
%ADD11R,1.700000X1.700000*%
%TD*%
%TA.AperFunction,ViaPad*%
%ADD12C,0.600000*%
%TD*%
%TA.AperFunction,Conductor*%
%ADD13C,0.200000*%
%TD*%
G04 APERTURE END LIST*
D10*
%TO.P,SW3,1,1_1*%
%TO.N,Net-(R4-Pad1)*%
X133460000Y-79500000D03*
X139960000Y-79500000D03*
%TO.P,SW3,2,2_2*%
%TO.N,+3V3*%
X133460000Y-84000000D03*
%TO.N,unconnected-(SW3-Pad2)*%
X139960000Y-84000000D03*
%TD*%
D11*
%TO.P,ESP2,1,Pin_1_1*%
%TO.N,/GP0_ADC1_0*%
X140530000Y-102750000D03*
D10*
%TO.P,ESP2,2,Pin_2_2*%
%TO.N,/GP1_ADC1_1*%
X137990000Y-102750000D03*
%TO.P,ESP2,3,Pin_3_3*%
%TO.N,/GP2_ADC1_2*%
X135450000Y-102750000D03*
%TO.P,ESP2,4,Pin_4_4*%
%TO.N,/GP3_ADC1_3*%
X132910000Y-102750000D03*
%TO.P,ESP2,5,Pin_5_5*%
%TO.N,/SCK*%
X130370000Y-102750000D03*
%TO.P,ESP2,6,Pin_6_6*%
%TO.N,+3V3*%
X127830000Y-102750000D03*
%TO.P,ESP2,7,Pin_7_7*%
%TO.N,GND*%
X125290000Y-102750000D03*
%TO.P,ESP2,8,Pin_8_8*%
%TO.N,unconnected-(ESP2-Pin_8-Pad8)*%
X122750000Y-102750000D03*
%TD*%
%TO.P,SW2,1,1_1*%
%TO.N,Net-(R3-Pad1)*%
X125500000Y-87000000D03*
X132000000Y-87000000D03*
%TO.P,SW2,2,2_2*%
%TO.N,+3V3*%
X125500000Y-91500000D03*
%TO.N,unconnected-(SW2-Pad2)*%
X132000000Y-91500000D03*
%TD*%
D11*
%TO.P,SCR1,1,Pin_1_1*%
%TO.N,/SDA*%
X140790000Y-54000000D03*
D10*
%TO.P,SCR1,2,Pin_2_2*%
%TO.N,/SCL*%
X138250000Y-54000000D03*
%TO.P,SCR1,3,Pin_3_3*%
%TO.N,+3V3*%
X135710000Y-54000000D03*
%TO.P,SCR1,4,Pin_4_4*%
%TO.N,GND*%
X133170000Y-54000000D03*
%TD*%
%TO.P,SW4,1,1_1*%
%TO.N,Net-(R2-Pad1)*%
X140500000Y-87000000D03*
X147000000Y-87000000D03*
%TO.P,SW4,2,2_2*%
%TO.N,+3V3*%
X140500000Y-91500000D03*
%TO.N,unconnected-(SW4-Pad2)*%
X147000000Y-91500000D03*
%TD*%
D11*
%TO.P,SD1,1,Pin_1_1*%
%TO.N,GND*%
X144250000Y-106750000D03*
D10*
%TO.P,SD1,2,Pin_2_2*%
%TO.N,/MISO*%
X141710000Y-106750000D03*
%TO.P,SD1,3,Pin_3_3*%
%TO.N,/SCK*%
X139170000Y-106750000D03*
%TO.P,SD1,4,Pin_4_4*%
%TO.N,/MOSI*%
X136630000Y-106750000D03*
%TO.P,SD1,5,Pin_5_5*%
%TO.N,/CS*%
X134090000Y-106750000D03*
%TO.P,SD1,6,Pin_6_6*%
%TO.N,+3V3*%
X131550000Y-106750000D03*
%TD*%
D11*
%TO.P,PCM1,1,Pin_1_1*%
%TO.N,+3V3*%
X122500000Y-53750000D03*
D10*
%TO.P,PCM1,2,Pin_2_2*%
%TO.N,GND*%
X122500000Y-56290000D03*
%TO.P,PCM1,3,Pin_3_3*%
%TO.N,/GP3_ADC1_3*%
X122500000Y-58830000D03*
%TO.P,PCM1,4,Pin_4_4*%
%TO.N,/GP2_ADC1_2*%
X122500000Y-61370000D03*
%TO.P,PCM1,5,Pin_5_5*%
%TO.N,/GP1_ADC1_1*%
X122500000Y-63910000D03*
%TO.P,PCM1,6,Pin_6_6*%
%TO.N,unconnected-(PCM1-Pin_6-Pad6)*%
X122500000Y-66450000D03*
%TD*%
D11*
%TO.P,ESP1,1,Pin_1_1*%
%TO.N,/MISO*%
X140530000Y-117750000D03*
D10*
%TO.P,ESP1,2,Pin_2_2*%
%TO.N,/MOSI*%
X137990000Y-117750000D03*
%TO.P,ESP1,3,Pin_3_3*%
%TO.N,/CS*%
X135450000Y-117750000D03*
%TO.P,ESP1,4,Pin_4_4*%
%TO.N,/SDA*%
X132910000Y-117750000D03*
%TO.P,ESP1,5,Pin_5_5*%
%TO.N,/SCL*%
X130370000Y-117750000D03*
%TO.P,ESP1,6,Pin_6_6*%
%TO.N,unconnected-(ESP1-Pin_6-Pad6)*%
X127830000Y-117750000D03*
%TO.P,ESP1,7,Pin_7_7*%
%TO.N,unconnected-(ESP1-Pin_7-Pad7)*%
X125290000Y-117750000D03*
%TO.P,ESP1,8,Pin_8_8*%
%TO.N,unconnected-(ESP1-Pin_8-Pad8)*%
X122750000Y-117750000D03*
%TD*%
%TO.P,SW1,1,1_1*%
%TO.N,Net-(R1-Pad1)*%
X133500000Y-94500000D03*
X140000000Y-94500000D03*
%TO.P,SW1,2,2_2*%
%TO.N,+3V3*%
X133500000Y-99000000D03*
%TO.N,unconnected-(SW1-Pad2)*%
X140000000Y-99000000D03*
%TD*%
D12*
%TO.N,Net-(R4-Pad1)*%
X129250000Y-79575000D03*
%TD*%
%TO.N,Net-(R4-Pad1)*%
D13*
X129325000Y-79500000D02*
X129250000Y-79575000D01*
X133460000Y-79500000D02*
X129325000Y-79500000D01*
%TO.N,+3V3*%
X125500000Y-91500000D02*
X133000000Y-99000000D01*
X133000000Y-99000000D02*
X133500000Y-99000000D01*
X133500000Y-99000000D02*
X131580000Y-99000000D01*
X131580000Y-99000000D02*
X127830000Y-102750000D01*
X125500000Y-91500000D02*
X126750000Y-92750000D01*
X126750000Y-92750000D02*
X139250000Y-92750000D01*
X139250000Y-92750000D02*
X140500000Y-91500000D01*
X133460000Y-84000000D02*
X140500000Y-91040000D01*
X140500000Y-91040000D02*
X140500000Y-91500000D01*
%TO.N,GND*%
X133170000Y-54000000D02*
X130880000Y-56290000D01*
X130880000Y-56290000D02*
X122500000Y-56290000D01*
X121250000Y-98710000D02*
X121250000Y-56500000D01*
X121250000Y-56500000D02*
X122290000Y-56500000D01*
X125290000Y-102750000D02*
X121250000Y-98710000D01*
X122290000Y-56500000D02*
X122500000Y-56290000D01*
X125290000Y-102750000D02*
X126790000Y-104250000D01*
X126790000Y-104250000D02*
X141750000Y-104250000D01*
X141750000Y-104250000D02*
X144250000Y-106750000D01*
%TD*%
M02*
