%TF.GenerationSoftware,KiCad,Pcbnew,10.0.5*%
%TF.CreationDate,2026-08-21T21:49:08-04:00*%
%TF.ProjectId,wavplayer-1_1,77617670-6c61-4796-9572-2d315f312e6b,rev?*%
%TF.SameCoordinates,Original*%
%TF.FileFunction,Soldermask,Bot*%
%TF.FilePolarity,Negative*%
%FSLAX46Y46*%
G04 Gerber Fmt 4.6, Leading zero omitted, Abs format (unit mm)*
G04 Created by KiCad (PCBNEW 10.0.5) date 2026-08-21 21:49:08*
%MOMM*%
%LPD*%
G01*
G04 APERTURE LIST*
%ADD10C,1.700000*%
%ADD11R,1.700000X1.700000*%
G04 APERTURE END LIST*
D10*
%TO.C,SW3*%
X133460000Y-79500000D03*
X139960000Y-79500000D03*
X133460000Y-84000000D03*
X139960000Y-84000000D03*
%TD*%
D11*
%TO.C,ESP2*%
X140530000Y-102750000D03*
D10*
X137990000Y-102750000D03*
X135450000Y-102750000D03*
X132910000Y-102750000D03*
X130370000Y-102750000D03*
X127830000Y-102750000D03*
X125290000Y-102750000D03*
X122750000Y-102750000D03*
%TD*%
%TO.C,SW2*%
X125500000Y-87000000D03*
X132000000Y-87000000D03*
X125500000Y-91500000D03*
X132000000Y-91500000D03*
%TD*%
D11*
%TO.C,SCR1*%
X140790000Y-54000000D03*
D10*
X138250000Y-54000000D03*
X135710000Y-54000000D03*
X133170000Y-54000000D03*
%TD*%
%TO.C,SW4*%
X140500000Y-87000000D03*
X147000000Y-87000000D03*
X140500000Y-91500000D03*
X147000000Y-91500000D03*
%TD*%
D11*
%TO.C,SD1*%
X144250000Y-106750000D03*
D10*
X141710000Y-106750000D03*
X139170000Y-106750000D03*
X136630000Y-106750000D03*
X134090000Y-106750000D03*
X131550000Y-106750000D03*
%TD*%
D11*
%TO.C,PCM1*%
X122500000Y-53750000D03*
D10*
X122500000Y-56290000D03*
X122500000Y-58830000D03*
X122500000Y-61370000D03*
X122500000Y-63910000D03*
X122500000Y-66450000D03*
%TD*%
D11*
%TO.C,ESP1*%
X140530000Y-117750000D03*
D10*
X137990000Y-117750000D03*
X135450000Y-117750000D03*
X132910000Y-117750000D03*
X130370000Y-117750000D03*
X127830000Y-117750000D03*
X125290000Y-117750000D03*
X122750000Y-117750000D03*
%TD*%
%TO.C,SW1*%
X133500000Y-94500000D03*
X140000000Y-94500000D03*
X133500000Y-99000000D03*
X140000000Y-99000000D03*
%TD*%
M02*
